# xmcd
#
# Track frame offsets:
#	150
#	10714
#	21112
#	29373
#	42080
#	51723
#	65136
#	72881
#	82535
#	92550
#	100413
#	113077
#
# Disc length: 1606 seconds
#
# Revision: 0
# Processed by: cddbd v1.5.2PL0 Copyright (c) Steve Scherf et al.
# Submitted via: audiograbber 1.83.01
#
DISCID=9306440c
DTITLE=Golden Earring - Complete Studio Recordings [CD 01) - Just Ear-Rings [re
DTITLE=mastered 2017]
DYEAR=1965
DGENRE=Rock
TTITLE0=The Golden Ear-Rings - Nobody But You
TTITLE1=The Golden Ear-Rings - I Hate Saying These Words
TTITLE2=The Golden Ear-Rings - She May Be
TTITLE3=The Golden Ear-Rings - Holy Witness
TTITLE4=The Golden Ear-Rings - No Need To Worry
TTITLE5=The Golden Ear-Rings - Please Go
TTITLE6=The Golden Ear-Rings - Sticks And Stones
TTITLE7=The Golden Ear-Rings - I Am A Fool
TTITLE8=The Golden Ear-Rings - Don't Stay Away
TTITLE9=The Golden Ear-Rings - Lonely Everyday
TTITLE10=The Golden Ear-Rings - When People Talk
TTITLE11=The Golden Ear-Rings - Now I Have
EXTD=
EXTT0=
EXTT1=
EXTT2=
EXTT3=
EXTT4=
EXTT5=
EXTT6=
EXTT7=
EXTT8=
EXTT9=
EXTT10=
EXTT11=
PLAYORDER=
